<svg id="logo_login" data-name="logo login" xmlns="http://www.w3.org/2000/svg" width="245.292" height="105.377" viewBox="0 0 245.292 105.377">
  <g id="Group_43" data-name="Group 43" transform="translate(108.992 51.425)">
    <path id="Path_32" data-name="Path 32" d="M958.877,485.39c13.208,0,22.537,10.98,22.537,26.557,0,15.5-9.329,26.557-22.537,26.557-13.277,0-22.537-11.052-22.537-26.629C936.337,496.37,945.6,485.39,958.877,485.39Zm-15.791,26.557c0,12.847,6.1,21.031,15.791,21.031,9.618,0,15.791-8.184,15.791-21.031s-6.172-21.031-15.791-21.031C949.187,490.916,943.087,499.1,943.087,511.947Z" transform="translate(-936.34 -485.243)" fill="#445977"/>
    <path id="Path_33" data-name="Path 33" d="M1131.122,535.532a3.087,3.087,0,1,1-6.172,0V488.879a3.089,3.089,0,1,1,6.172,0Z" transform="translate(-1072.626 -485.431)" fill="#445977"/>
    <path id="Path_34" data-name="Path 34" d="M1207.342,528.573a4.424,4.424,0,0,1,2.153-.863,2.915,2.915,0,0,1,2.871,3.016,4.064,4.064,0,0,1-1.939,3.157c-3.518,2.727-8.542,4.233-13.851,4.233-13.782,0-23.256-10.622-23.256-26.269,0-15.935,9.26-26.987,22.826-26.987a21.989,21.989,0,0,1,10.767,2.727c2.8,1.651,4.306,3.518,4.306,5.168a2.9,2.9,0,0,1-2.655,2.871,3.877,3.877,0,0,1-2.441-1c-1.293-.932-2.009-1.434-2.153-1.578a15.312,15.312,0,0,0-8.04-2.369c-9.4,0-16.079,8.614-16.079,20.959,0,12.417,6.675,20.67,16.723,20.67a16.64,16.64,0,0,0,8.686-2.369Z" transform="translate(-1107.578 -484.86)" fill="#445977"/>
    <path id="Path_35" data-name="Path 35" d="M1344.125,533.8h15.791a2.866,2.866,0,0,1,2.871,2.8,2.835,2.835,0,0,1-2.871,2.871h-18.878c-1.939,0-3.157-1.293-3.157-3.445V490.949a3.129,3.129,0,0,1,3.229-3.229H1359.2a2.872,2.872,0,1,1-.072,5.743h-14.931v17.3h14.14a2.872,2.872,0,1,1,.072,5.743h-14.284v17.3Z" transform="translate(-1226.486 -486.927)" fill="#445977"/>
  </g>
  <g id="Group_44" data-name="Group 44" transform="translate(0 51.572)">
    <path id="Path_36" data-name="Path 36" d="M549.633,535.532a3.087,3.087,0,1,1-6.172,0V488.879a3.089,3.089,0,1,1,6.172,0Z" transform="translate(-543.46 -485.578)" fill="#445977"/>
    <path id="Path_37" data-name="Path 37" d="M605,496.731V535.2a3.065,3.065,0,0,1-3.016,3.157,3.137,3.137,0,0,1-3.157-3.157V488.547a3.2,3.2,0,0,1,3.229-3.157,3.01,3.01,0,0,1,2.513,1.434l27.778,40.339V488.691a3.059,3.059,0,1,1,6.1-.072v46.87A3.068,3.068,0,0,1,635.3,538.5a3.108,3.108,0,0,1-2.513-1.365Z" transform="translate(-583.469 -485.39)" fill="#445977"/>
  </g>
  <path id="Path_38" data-name="Path 38" d="M767.09,352.89l22.393,51.977s18.512-82.2,68.591-99.84L837.2,299.49S795.27,324.471,787.3,381.381l-13.077-39.316Z" transform="translate(-705.051 -299.49)" fill="#f77d2b"/>
  <g id="Group_46" data-name="Group 46" transform="translate(1.382 22.374)">
    <g id="Group_45" data-name="Group 45" transform="translate(0)">
      <path id="Path_39" data-name="Path 39" d="M554.385,383.935l-2.974,20.027a1.478,1.478,0,0,1-1.537,1.4,1.354,1.354,0,0,1-1.434-1.47,1.71,1.71,0,0,1,.033-.411l3.59-21.5a2.226,2.226,0,0,1,2.255-1.845,2.182,2.182,0,0,1,2.186,1.742l5.332,18.321,5.332-18.321a2.19,2.19,0,0,1,2.222-1.742,2.277,2.277,0,0,1,2.255,1.845l3.554,21.5a.858.858,0,0,1,.069.411,1.419,1.419,0,0,1-1.47,1.47,1.5,1.5,0,0,1-1.537-1.4l-2.974-20.027-6.017,20.3c-.239.821-.649,1.2-1.434,1.2a1.457,1.457,0,0,1-1.47-1.2Z" transform="translate(-548.44 -380.14)" fill="#445977"/>
      <path id="Path_40" data-name="Path 40" d="M660.175,406.137c.854-1.676,1.368-2.289,2.325-2.769a2.769,2.769,0,0,1,1.129-.308,1.576,1.576,0,0,1,1.64,1.537c0,.719-.341,1.093-1.332,1.47a5.78,5.78,0,0,0-1.984,1.129c-1.129,1.06-1.709,2.7-1.709,5.024l-.033,8.306a1.415,1.415,0,0,1-1.4,1.434,1.451,1.451,0,0,1-1.47-1.434V404.6a1.459,1.459,0,0,1,1.47-1.47,1.431,1.431,0,0,1,1.47,1.434Z" transform="translate(-627.129 -396.702)" fill="#445977"/>
      <path id="Path_41" data-name="Path 41" d="M689.3,458.63a1.86,1.86,0,0,1,1.845,1.845,1.788,1.788,0,0,1-1.811,1.742,1.818,1.818,0,0,1-1.812-1.778A1.771,1.771,0,0,1,689.3,458.63Z" transform="translate(-648.937 -436.856)" fill="#445977"/>
    </g>
  </g>
</svg>
